<svg width="40" height="40" viewBox="0 0 40 40" fill="none" xmlns="http://www.w3.org/2000/svg">
<rect width="39.9999" height="39.9999" fill="#425b77"/>
<path d="M39.9426 15.189C39.8048 14.7442 39.438 14.4201 38.9966 14.3529L26.5965 12.4639L21.0509 0.684749C20.8535 0.265431 20.4461 0 20 0C19.554 0 19.1466 0.265513 18.9492 0.684749L13.4032 12.464L1.00335 14.3529C0.561944 14.4201 0.195225 14.7442 0.0574132 15.189C-0.0804772 15.6337 0.0345226 16.1218 0.353897 16.4482L9.32638 25.6171L7.20857 38.5638C7.13318 39.0246 7.31396 39.4904 7.67482 39.7652C8.0356 40.04 8.51388 40.0763 8.90896 39.8587L20 33.7462L31.0906 39.8588C31.2621 39.9533 31.4493 39.9999 31.6359 39.9999C31.8788 39.9999 32.1207 39.9208 32.3248 39.7653C32.6856 39.4904 32.8664 39.0247 32.791 38.5638L30.6726 25.6171L39.646 16.4483C39.9655 16.1218 40.0805 15.6337 39.9426 15.189ZM28.5955 24.3084C28.3192 24.5907 28.1931 24.9974 28.2585 25.3959L30.0796 36.5257L20.5454 31.2709C20.204 31.0828 19.7961 31.0828 19.4547 31.2709L9.91997 36.5257L11.7406 25.3958C11.8058 24.9973 11.6797 24.5907 11.4036 24.3085L3.6903 16.4263L14.35 14.8024C14.7318 14.7442 15.0616 14.493 15.2324 14.1304L20 4.00407L24.7674 14.1303C24.9381 14.4929 25.268 14.7442 25.6497 14.8024L36.3096 16.4263L28.5955 24.3084Z" fill="url(#paint0_linear)"/>
<defs>
<linearGradient id="paint0_linear" x1="20" y1="0" x2="20" y2="39.9999" gradientUnits="userSpaceOnUse">
<stop stop-color="#8A8A8A"/>
<stop offset="0.3125" stop-color="white"/>
<stop offset="0.630208" stop-color="#CDCDCC"/>
<stop offset="0.953125" stop-color="#A5A5A5"/>
</linearGradient>
</defs>
</svg>
